<?xml version="1.0" standalone="no"?>
<!DOCTYPE svg PUBLIC "-//W3C//DTD SVG 1.1//EN"
  "http://www.w3.org/Graphics/SVG/1.1/DTD/svg11.dtd">
<svg width="150.72100067138672mm" height="31.90800094604492mm" viewBox="-82.72100067138672 -47.908000946044915 150.72100067138672 31.90800094604492" xmlns="http://www.w3.org/2000/svg" version="1.1">
	<title>svgOutput</title>
	<desc>made with tinkercad</desc>
<path d="M 47.15299987792969 -42.06700134277343 L 50.637001037597656 -43.84199905395507 L 54.5 -44.45399856567382 L 58.362998962402344 -43.84199905395507 L 61.84700012207031 -42.06700134277343 L 61.95800018310547 -41.956001281738274 L 63.098182678222656 -40.81581878662109 L 64.50299835205078 -39.410999298095696 L 64.61299896240234 -39.30099868774413 L 66.38800048828125 -35.81700134277343 L 66.87104034423828 -32.76800155639648 L 67 -31.954000473022454 L 66.38800048828125 -28.090999603271477 L 64.61299896240234 -24.606000900268548 L 64.50299835205078 -24.496040344238274 L 63.36246871948242 -23.355920791625973 L 61.95703887939453 -21.951000213623043 L 61.84700012207031 -21.84099960327148 L 58.362998962402344 -20.065999984741207 L 54.5 -19.454000473022457 L 50.637001037597656 -20.065999984741207 L 47.15299987792969 -21.84099960327148 L 47.04296112060547 -21.951000213623043 L 45.89968490600586 -23.093862533569332 L 44.49800109863281 -24.49504089355468 L 44.387001037597656 -24.606000900268548 L 43.191104888916016 -26.954000473022454 L 42.79212951660156 -26.954000473022454 L 42 -26.954000473022454 L -52 -26.954000473022454 L -52.98848342895508 -26.954000473022454 L -54.16400146484375 -24.11599922180175 L -57.21200180053711 -20.548000335693356 L -61.2140007019043 -18.096000671386715 L -65.7770004272461 -16.999999999999996 L -70.45500183105469 -17.368000030517575 L -74.79100036621094 -19.163999557495114 L -75.41284942626953 -19.695075988769528 L -76.55157470703125 -20.66756439208984 L -73.3219985961914 -21.197000503540036 L -59.972999572753906 -30.785999298095696 L -60.79411315917969 -32.76800155639648 L -62.84400177001953 -37.71599960327148 L -79.06300354003906 -35.05699920654296 L -81.72100067138672 -33.14767456054687 L -81.60324096679688 -34.640544891357415 L -81.53900146484375 -35.45500183105468 L -79.74299621582031 -39.79100036621093 L -76.69599914550781 -43.360000610351555 L -72.69400024414062 -45.812000274658196 L -68.13099670410156 -46.908000946044915 L -66.60216522216797 -46.787429809570305 L -63.45199966430664 -46.53900146484374 L -59.11600112915039 -44.74300003051757 L -55.54800033569336 -41.695999145507805 L -53.09600067138672 -37.69400024414062 L -52.91825866699219 -36.95399856567382 L -52 -36.95399856567382 L 42 -36.95399856567382 L 42.040000915527344 -36.95399856567382 L 43.19126892089844 -36.95399856567382 L 44.387001037597656 -39.30099868774413 L 44.49800109863281 -39.41199874877929 L 45 -39.91400146484374 L 45.64039993286133 -40.55440139770507 L 47.04199981689453 -41.956001281738274 L 47.15299987792969 -42.06700134277343 M 57.590999603271484 -41.46699905395507 L 54.5 -41.956001281738274 L 51.409000396728516 -41.46699905395507 L 48.62099838256836 -40.046001434326165 L 46.40800094604492 -37.83300018310546 L 45 -35.07050704956054 L 45 -32.76800155639648 L 45 -28.837484359741204 L 46.40800094604492 -26.07399940490722 L 48.62099838256836 -23.861999511718746 L 51.409000396728516 -22.440999984741207 L 54.5 -21.951000213623043 L 57.590999603271484 -22.440999984741207 L 60.37900161743164 -23.861999511718746 L 62.59199905395508 -26.07399940490722 L 64.01300048828125 -28.86300086975097 L 64.50299835205078 -31.954000473022454 L 64.37396240234375 -32.76800155639648 L 64.01300048828125 -35.044998168945305 L 62.59199905395508 -37.83300018310546 L 60.37900161743164 -40.046001434326165 L 57.590999603271484 -41.46699905395507 z" fill="none" stroke="rgb(255,0,0)" stroke-width="0.001mm" />
</svg>